<svg id="visual" viewBox="0 0 960 540" width="960" height="540" xmlns="http://www.w3.org/2000/svg" xmlns:xlink="http://www.w3.org/1999/xlink" version="1.1"><path d="M0 362L17.8 370C35.7 378 71.3 394 106.8 394.3C142.3 394.7 177.7 379.3 213.2 381.2C248.7 383 284.3 402 320 413.2C355.7 424.3 391.3 427.7 426.8 427C462.3 426.3 497.7 421.7 533.2 419.3C568.7 417 604.3 417 640 414.5C675.7 412 711.3 407 746.8 397.7C782.3 388.3 817.7 374.7 853.2 375.8C888.7 377 924.3 393 942.2 401L960 409L960 541L942.2 541C924.3 541 888.7 541 853.2 541C817.7 541 782.3 541 746.8 541C711.3 541 675.7 541 640 541C604.3 541 568.7 541 533.2 541C497.7 541 462.3 541 426.8 541C391.3 541 355.7 541 320 541C284.3 541 248.7 541 213.2 541C177.7 541 142.3 541 106.8 541C71.3 541 35.7 541 17.8 541L0 541Z" fill="#6c63ff"></path><path d="M0 420L17.8 419.3C35.7 418.7 71.3 417.3 106.8 416C142.3 414.7 177.7 413.3 213.2 419.2C248.7 425 284.3 438 320 434.8C355.7 431.7 391.3 412.3 426.8 406.2C462.3 400 497.7 407 533.2 407C568.7 407 604.3 400 640 404.3C675.7 408.7 711.3 424.3 746.8 430.7C782.3 437 817.7 434 853.2 427C888.7 420 924.3 409 942.2 403.5L960 398L960 541L942.2 541C924.3 541 888.7 541 853.2 541C817.7 541 782.3 541 746.8 541C711.3 541 675.7 541 640 541C604.3 541 568.7 541 533.2 541C497.7 541 462.3 541 426.8 541C391.3 541 355.7 541 320 541C284.3 541 248.7 541 213.2 541C177.7 541 142.3 541 106.8 541C71.3 541 35.7 541 17.8 541L0 541Z" fill="#6955f1"></path><path d="M0 457L17.8 457.7C35.7 458.3 71.3 459.7 106.8 454.3C142.3 449 177.7 437 213.2 438.8C248.7 440.7 284.3 456.3 320 462.5C355.7 468.7 391.3 465.3 426.8 460.8C462.3 456.3 497.7 450.7 533.2 448.7C568.7 446.7 604.3 448.3 640 446.3C675.7 444.3 711.3 438.7 746.8 436.2C782.3 433.7 817.7 434.3 853.2 437.5C888.7 440.7 924.3 446.3 942.2 449.2L960 452L960 541L942.2 541C924.3 541 888.7 541 853.2 541C817.7 541 782.3 541 746.8 541C711.3 541 675.7 541 640 541C604.3 541 568.7 541 533.2 541C497.7 541 462.3 541 426.8 541C391.3 541 355.7 541 320 541C284.3 541 248.7 541 213.2 541C177.7 541 142.3 541 106.8 541C71.3 541 35.7 541 17.8 541L0 541Z" fill="#6646e3"></path><path d="M0 489L17.8 490.3C35.7 491.7 71.3 494.3 106.8 495.7C142.3 497 177.7 497 213.2 493.7C248.7 490.3 284.3 483.7 320 483.3C355.7 483 391.3 489 426.8 489C462.3 489 497.7 483 533.2 477.3C568.7 471.7 604.3 466.3 640 467.3C675.7 468.3 711.3 475.7 746.8 481.2C782.3 486.7 817.7 490.3 853.2 490.3C888.7 490.3 924.3 486.7 942.2 484.8L960 483L960 541L942.2 541C924.3 541 888.7 541 853.2 541C817.7 541 782.3 541 746.8 541C711.3 541 675.7 541 640 541C604.3 541 568.7 541 533.2 541C497.7 541 462.3 541 426.8 541C391.3 541 355.7 541 320 541C284.3 541 248.7 541 213.2 541C177.7 541 142.3 541 106.8 541C71.3 541 35.7 541 17.8 541L0 541Z" fill="#6336d5"></path><path d="M0 494L17.8 493.3C35.7 492.7 71.3 491.3 106.8 492.2C142.3 493 177.7 496 213.2 500.2C248.7 504.3 284.3 509.7 320 507.5C355.7 505.3 391.3 495.7 426.8 495.3C462.3 495 497.7 504 533.2 505.5C568.7 507 604.3 501 640 498C675.7 495 711.3 495 746.8 494.8C782.3 494.7 817.7 494.3 853.2 496C888.7 497.7 924.3 501.3 942.2 503.2L960 505L960 541L942.2 541C924.3 541 888.7 541 853.2 541C817.7 541 782.3 541 746.8 541C711.3 541 675.7 541 640 541C604.3 541 568.7 541 533.2 541C497.7 541 462.3 541 426.8 541C391.3 541 355.7 541 320 541C284.3 541 248.7 541 213.2 541C177.7 541 142.3 541 106.8 541C71.3 541 35.7 541 17.8 541L0 541Z" fill="#5f24c7"></path></svg>