<svg id="visual" viewBox="0 0 900 600" width="900" height="600" xmlns="http://www.w3.org/2000/svg" xmlns:xlink="http://www.w3.org/1999/xlink" version="1.1"><path d="M0 428L21.5 417.2C43 406.3 86 384.7 128.8 385.7C171.7 386.7 214.3 410.3 257.2 409C300 407.7 343 381.3 385.8 371C428.7 360.7 471.3 366.3 514.2 377.8C557 389.3 600 406.7 642.8 409.5C685.7 412.3 728.3 400.7 771.2 394.7C814 388.7 857 388.3 878.5 388.2L900 388L900 601L878.5 601C857 601 814 601 771.2 601C728.3 601 685.7 601 642.8 601C600 601 557 601 514.2 601C471.3 601 428.7 601 385.8 601C343 601 300 601 257.2 601C214.3 601 171.7 601 128.8 601C86 601 43 601 21.5 601L0 601Z" fill="#6c63ff"></path><path d="M0 468L21.5 462.3C43 456.7 86 445.3 128.8 437.2C171.7 429 214.3 424 257.2 429C300 434 343 449 385.8 449.2C428.7 449.3 471.3 434.7 514.2 434.3C557 434 600 448 642.8 457.2C685.7 466.3 728.3 470.7 771.2 460.2C814 449.7 857 424.3 878.5 411.7L900 399L900 601L878.5 601C857 601 814 601 771.2 601C728.3 601 685.7 601 642.8 601C600 601 557 601 514.2 601C471.3 601 428.7 601 385.8 601C343 601 300 601 257.2 601C214.3 601 171.7 601 128.8 601C86 601 43 601 21.5 601L0 601Z" fill="#7757e3"></path><path d="M0 501L21.5 499.8C43 498.7 86 496.3 128.8 486.8C171.7 477.3 214.3 460.7 257.2 454.7C300 448.7 343 453.3 385.8 452.8C428.7 452.3 471.3 446.7 514.2 453.7C557 460.7 600 480.3 642.8 488.5C685.7 496.7 728.3 493.3 771.2 494.2C814 495 857 500 878.5 502.5L900 505L900 601L878.5 601C857 601 814 601 771.2 601C728.3 601 685.7 601 642.8 601C600 601 557 601 514.2 601C471.3 601 428.7 601 385.8 601C343 601 300 601 257.2 601C214.3 601 171.7 601 128.8 601C86 601 43 601 21.5 601L0 601Z" fill="#7b4cc9"></path><path d="M0 525L21.5 522.3C43 519.7 86 514.3 128.8 514.5C171.7 514.7 214.3 520.3 257.2 516.8C300 513.3 343 500.7 385.8 502.5C428.7 504.3 471.3 520.7 514.2 528.8C557 537 600 537 642.8 533C685.7 529 728.3 521 771.2 518.8C814 516.7 857 520.3 878.5 522.2L900 524L900 601L878.5 601C857 601 814 601 771.2 601C728.3 601 685.7 601 642.8 601C600 601 557 601 514.2 601C471.3 601 428.7 601 385.8 601C343 601 300 601 257.2 601C214.3 601 171.7 601 128.8 601C86 601 43 601 21.5 601L0 601Z" fill="#7a42b0"></path><path d="M0 528L21.5 529.2C43 530.3 86 532.7 128.8 535.5C171.7 538.3 214.3 541.7 257.2 545.5C300 549.3 343 553.7 385.8 551.3C428.7 549 471.3 540 514.2 535.5C557 531 600 531 642.8 538.2C685.7 545.3 728.3 559.7 771.2 565.5C814 571.3 857 568.7 878.5 567.3L900 566L900 601L878.5 601C857 601 814 601 771.2 601C728.3 601 685.7 601 642.8 601C600 601 557 601 514.2 601C471.3 601 428.7 601 385.8 601C343 601 300 601 257.2 601C214.3 601 171.7 601 128.8 601C86 601 43 601 21.5 601L0 601Z" fill="#763a98"></path></svg>